<svg width="24" height="24" viewBox="0 0 24 24" fill="none" xmlns="http://www.w3.org/2000/svg">
<path d="M2.04999 13H21.94C21.88 13.69 21.74 14.36 21.54 15H14V17H17V19H15V21H12.5V22C12.33 22 12.17 22 12 22C6.81999 22 2.54999 18.05 2.04999 13ZM21.94 11H2.04999C2.54999 5.95 6.81999 2 12 2C13.62 2 15.15 2.39 16.5 3.08V5H18.5V7H20V9H21.54C21.74 9.64 21.88 10.31 21.94 11ZM12 6.75C12 6.4217 11.9353 6.09661 11.8097 5.79329C11.684 5.48998 11.4999 5.21438 11.2678 4.98223C11.0356 4.75009 10.76 4.56594 10.4567 4.4403C10.1534 4.31466 9.82829 4.25 9.49999 4.25C8.83695 4.25 8.20106 4.51339 7.73222 4.98223C7.26338 5.45107 6.99999 6.08696 6.99999 6.75C6.99999 7.41304 7.26338 8.04893 7.73222 8.51777C8.20106 8.98661 8.83695 9.25 9.49999 9.25C9.82829 9.25 10.1534 9.18534 10.4567 9.0597C10.76 8.93406 11.0356 8.74991 11.2678 8.51777C11.4999 8.28562 11.684 8.01002 11.8097 7.70671C11.9353 7.40339 12 7.0783 12 6.75Z" fill="#90392E"/>
</svg>
