<svg width="40" height="40" viewBox="0 0 40 40" fill="none" xmlns="http://www.w3.org/2000/svg">
<path d="M14.1317 16.0333C14.1317 16.5008 14.3174 16.9491 14.6479 17.2796C14.9784 17.6101 15.4267 17.7958 15.8942 17.7958C16.3616 17.7958 16.8099 17.6101 17.1404 17.2796C17.471 16.9491 17.6567 16.5008 17.6567 16.0333C17.6567 15.5659 17.471 15.1176 17.1404 14.7871C16.8099 14.4565 16.3616 14.2708 15.8942 14.2708C15.4267 14.2708 14.9784 14.4565 14.6479 14.7871C14.3174 15.1176 14.1317 15.5659 14.1317 16.0333ZM0 20C0 31.045 8.955 40 20 40C20.5833 40 21.1617 39.975 21.7333 39.9267C18.3683 36.7767 17.4867 31.4917 17.4867 31.4917L22.8633 29.7367C22.8633 29.7367 25.3617 35.12 32.195 35.8533C34.6252 33.9869 36.5933 31.5862 37.9467 28.8371C39.3002 26.088 40.0027 23.0642 40 20C40 8.955 31.045 0 20 0C8.955 0 0 8.955 0 20ZM25.62 11.01C27.67 10.7933 28.7617 9.62667 29.0033 7.625C29.24 9.55667 30.2867 10.7583 32.39 11.01C30.4433 11.3883 29.34 12.54 29.005 14.3967C29.0383 12.4733 27.895 11.355 25.62 11.01ZM12.6433 19.6883C10.7933 15.55 11.99 12.6017 14.6983 9.27833C18.1033 11.7783 20.9633 14.3167 20.7583 17.86C23.05 18.985 24.5267 19.87 26.0033 21.675L21.3717 23.5133L21.985 25.625L15.9233 27.395L15.185 25.4267L10.4767 26.5117C10.4533 24.0183 11.11 21.35 12.6433 19.6883Z" fill="#2A87BB"/>
</svg>
